<svg width="212" height="179" viewBox="0 0 212 179" fill="none" xmlns="http://www.w3.org/2000/svg">
<g clip-path="url(#clip0_2535:15571)">
<path d="M175.784 144.446L105.45 112.288L141.666 32.8354L212 64.9935L175.784 144.446Z" fill="#F2F2F2"/>
<path d="M186.498 98.2882L133.253 73.9437C133.153 73.8979 133.075 73.814 133.036 73.7105C132.998 73.6071 133.002 73.4926 133.048 73.3921C133.094 73.2917 133.177 73.2135 133.281 73.1749C133.384 73.1363 133.498 73.1404 133.599 73.1863L186.844 97.5308C186.944 97.5766 187.022 97.6605 187.06 97.7639C187.099 97.8674 187.095 97.9819 187.049 98.0824C187.003 98.1828 186.919 98.2609 186.816 98.2995C186.713 98.3381 186.599 98.3341 186.498 98.2882Z" fill="white"/>
<path d="M189.459 91.7928L136.214 67.4484C136.164 67.4256 136.12 67.3934 136.082 67.3534C136.045 67.3134 136.016 67.2664 135.997 67.2152C135.978 67.164 135.969 67.1095 135.971 67.0548C135.973 67.0002 135.986 66.9465 136.008 66.8967C136.031 66.847 136.063 66.8022 136.103 66.765C136.143 66.7277 136.19 66.6987 136.241 66.6796C136.292 66.6605 136.347 66.6516 136.401 66.6536C136.456 66.6555 136.51 66.6682 136.559 66.6909L189.804 91.0354C189.854 91.0581 189.899 91.0904 189.936 91.1304C189.973 91.1704 190.002 91.2174 190.021 91.2686C190.04 91.3198 190.049 91.3743 190.047 91.4289C190.045 91.4836 190.032 91.5373 190.01 91.587C189.987 91.6367 189.955 91.6815 189.915 91.7188C189.875 91.756 189.828 91.7851 189.777 91.8042C189.726 91.8233 189.671 91.8321 189.617 91.8302C189.562 91.8282 189.509 91.8155 189.459 91.7928Z" fill="white"/>
<path d="M192.42 85.2975L139.175 60.953C139.125 60.9303 139.08 60.898 139.043 60.858C139.006 60.818 138.977 60.771 138.958 60.7198C138.939 60.6686 138.93 60.6141 138.932 60.5595C138.934 60.5048 138.947 60.4511 138.969 60.4014C138.992 60.3516 139.024 60.3069 139.064 60.2696C139.104 60.2324 139.151 60.2033 139.202 60.1842C139.253 60.1651 139.308 60.1563 139.362 60.1582C139.417 60.1602 139.47 60.1728 139.52 60.1956L192.765 84.54C192.865 84.586 192.943 84.6699 192.981 84.7733C193.02 84.8766 193.015 84.991 192.97 85.0913C192.924 85.1916 192.84 85.2697 192.737 85.3083C192.634 85.347 192.52 85.3431 192.42 85.2975Z" fill="white"/>
<path d="M195.381 78.8019L142.136 54.4574C142.086 54.4347 142.041 54.4024 142.004 54.3624C141.967 54.3224 141.938 54.2754 141.919 54.2242C141.9 54.173 141.891 54.1185 141.893 54.0639C141.895 54.0092 141.907 53.9555 141.93 53.9058C141.953 53.856 141.985 53.8113 142.025 53.774C142.065 53.7367 142.112 53.7077 142.163 53.6886C142.214 53.6695 142.268 53.6607 142.323 53.6626C142.378 53.6646 142.431 53.6773 142.481 53.7L195.726 78.0444C195.776 78.0671 195.82 78.0994 195.857 78.1394C195.895 78.1794 195.924 78.2264 195.943 78.2776C195.962 78.3288 195.971 78.3833 195.969 78.438C195.967 78.4926 195.954 78.5463 195.931 78.596C195.909 78.6458 195.876 78.6906 195.837 78.7278C195.797 78.7651 195.75 78.7941 195.699 78.8132C195.647 78.8323 195.593 78.8412 195.538 78.8392C195.484 78.8373 195.43 78.8246 195.381 78.8019Z" fill="white"/>
<path d="M183.822 104.158L130.578 79.8138C130.528 79.7911 130.483 79.7589 130.446 79.7188C130.409 79.6788 130.38 79.6319 130.361 79.5807C130.342 79.5294 130.333 79.475 130.335 79.4203C130.337 79.3657 130.349 79.312 130.372 79.2622C130.395 79.2125 130.427 79.1677 130.467 79.1305C130.507 79.0932 130.554 79.0642 130.605 79.0451C130.656 79.026 130.71 79.0171 130.765 79.0191C130.819 79.021 130.873 79.0337 130.923 79.0564L184.168 103.401C184.268 103.447 184.346 103.531 184.385 103.634C184.423 103.738 184.419 103.852 184.373 103.952C184.327 104.053 184.244 104.131 184.14 104.17C184.037 104.208 183.923 104.204 183.822 104.158V104.158Z" fill="white"/>
<path d="M192.714 69.2736L151.123 50.2575C150.889 50.1565 150.7 49.9729 150.592 49.7417C150.484 49.5104 150.465 49.2475 150.538 49.003C150.583 48.8701 150.655 48.7481 150.75 48.6449C150.845 48.5417 150.96 48.4595 151.089 48.4038C151.217 48.3481 151.356 48.32 151.496 48.3213C151.636 48.3227 151.774 48.3535 151.901 48.4117L193.48 67.422C193.718 67.5235 193.91 67.7097 194.02 67.9448C194.129 68.1799 194.148 68.4472 194.072 68.6952C194.026 68.8264 193.953 68.9465 193.858 69.0479C193.763 69.1493 193.648 69.2298 193.52 69.2842C193.392 69.3386 193.255 69.3657 193.116 69.3639C192.977 69.3621 192.84 69.3313 192.714 69.2736Z" fill="white"/>
<path d="M32.6819 64.9935L103.016 32.8354L139.232 112.288L68.898 144.446L32.6819 64.9935Z" fill="#F2F2F2"/>
<path d="M58.1838 98.2882L111.429 73.9437C111.478 73.921 111.523 73.8887 111.56 73.8487C111.597 73.8087 111.626 73.7618 111.646 73.7105C111.665 73.6593 111.673 73.6048 111.671 73.5502C111.67 73.4956 111.657 73.4418 111.634 73.3921C111.612 73.3424 111.579 73.2976 111.539 73.2603C111.499 73.2231 111.453 73.1941 111.401 73.1749C111.35 73.1558 111.296 73.147 111.241 73.1489C111.187 73.1509 111.133 73.1636 111.083 73.1863L57.8385 97.5308C57.7889 97.5535 57.7441 97.5857 57.7069 97.6258C57.6697 97.6658 57.6408 97.7127 57.6217 97.7639C57.6026 97.8152 57.5938 97.8696 57.5957 97.9243C57.5977 97.9789 57.6103 98.0326 57.633 98.0824C57.6557 98.1321 57.6879 98.1769 57.7278 98.2141C57.7678 98.2514 57.8147 98.2804 57.8658 98.2995C57.917 98.3186 57.9714 98.3275 58.0259 98.3255C58.0805 98.3236 58.1341 98.3109 58.1838 98.2882Z" fill="white"/>
<path d="M55.2231 91.7928L108.468 67.4484C108.568 67.4025 108.646 67.3186 108.685 67.2152C108.723 67.1117 108.719 66.9972 108.674 66.8967C108.628 66.7963 108.544 66.7182 108.441 66.6796C108.337 66.641 108.223 66.6451 108.123 66.6909L54.8778 91.0354C54.8282 91.0581 54.7835 91.0904 54.7463 91.1304C54.709 91.1704 54.6801 91.2174 54.661 91.2686C54.6419 91.3198 54.6331 91.3743 54.635 91.4289C54.637 91.4836 54.6496 91.5373 54.6723 91.587C54.695 91.6367 54.7272 91.6815 54.7672 91.7188C54.8071 91.756 54.854 91.7851 54.9051 91.8042C54.9563 91.8233 55.0107 91.8321 55.0652 91.8302C55.1198 91.8282 55.1734 91.8155 55.2231 91.7928H55.2231Z" fill="white"/>
<path d="M52.2622 85.2975L105.507 60.953C105.607 60.9071 105.685 60.8233 105.724 60.7198C105.763 60.6164 105.758 60.5018 105.713 60.4014C105.667 60.3009 105.583 60.2228 105.48 60.1842C105.377 60.1456 105.262 60.1497 105.162 60.1956L51.917 84.5401C51.8168 84.586 51.7389 84.6699 51.7005 84.7733C51.662 84.8767 51.6661 84.9911 51.7119 85.0915C51.7576 85.1919 51.8413 85.2699 51.9445 85.3086C52.0477 85.3472 52.162 85.3432 52.2622 85.2975Z" fill="white"/>
<path d="M49.3015 78.8019L102.546 54.4574C102.596 54.4347 102.641 54.4024 102.678 54.3624C102.715 54.3224 102.744 54.2754 102.763 54.2242C102.782 54.173 102.791 54.1185 102.789 54.0639C102.787 54.0092 102.775 53.9555 102.752 53.9058C102.729 53.856 102.697 53.8113 102.657 53.774C102.617 53.7368 102.57 53.7077 102.519 53.6886C102.468 53.6695 102.414 53.6607 102.359 53.6626C102.304 53.6646 102.251 53.6773 102.201 53.7L48.9562 78.0444C48.8559 78.0903 48.7779 78.1742 48.7394 78.2776C48.7008 78.3811 48.7049 78.4956 48.7507 78.5961C48.7965 78.6965 48.8802 78.7746 48.9835 78.8132C49.0868 78.8518 49.2012 78.8477 49.3014 78.8019H49.3015Z" fill="white"/>
<path d="M60.8596 104.158L114.104 79.8138C114.205 79.768 114.283 79.6841 114.321 79.5807C114.36 79.4772 114.356 79.3627 114.31 79.2622C114.264 79.1618 114.18 79.0837 114.077 79.0451C113.974 79.0065 113.86 79.0105 113.759 79.0564L60.5143 103.401C60.4646 103.424 60.4199 103.456 60.3827 103.496C60.3455 103.536 60.3166 103.583 60.2975 103.634C60.2784 103.685 60.2696 103.74 60.2715 103.794C60.2734 103.849 60.2861 103.903 60.3088 103.952C60.3315 104.002 60.3637 104.047 60.4036 104.084C60.4436 104.122 60.4905 104.151 60.5416 104.17C60.5927 104.189 60.6471 104.198 60.7017 104.196C60.7563 104.194 60.8099 104.181 60.8595 104.158H60.8596Z" fill="white"/>
<path d="M51.9682 69.2736L93.5593 50.2575C93.7933 50.1565 93.9822 49.9729 94.0899 49.7417C94.1977 49.5104 94.2168 49.2475 94.1437 49.003C94.099 48.8701 94.0269 48.7481 93.9321 48.6449C93.8373 48.5417 93.722 48.4595 93.5935 48.4038C93.465 48.3481 93.3262 48.32 93.1862 48.3213C93.0462 48.3227 92.9081 48.3535 92.7807 48.4117L51.2023 67.4221C50.964 67.5235 50.7716 67.7097 50.6622 67.9448C50.5527 68.1799 50.5341 68.4472 50.6097 68.6952C50.6558 68.8264 50.7287 68.9465 50.8238 69.0479C50.9188 69.1493 51.0339 69.2298 51.1617 69.2842C51.2895 69.3386 51.4272 69.3658 51.5661 69.3639C51.7049 69.3621 51.8419 69.3314 51.9682 69.2736Z" fill="white"/>
<path d="M7.03093 158.809C7.47499 151.92 11.3077 144.931 17.688 142.318C15.5368 149.51 15.9947 157.232 18.9809 164.118C20.1422 166.769 21.7094 169.597 20.93 172.385C20.4451 174.12 19.0895 175.506 17.5362 176.414C15.9828 177.323 14.2283 177.816 12.4957 178.3L12.1672 178.607C9.00766 172.471 6.58687 165.699 7.03093 158.809Z" fill="#F0F0F0"/>
<path d="M17.7605 142.444C14.2202 146.925 12.1797 152.409 11.9288 158.118C11.853 159.346 11.971 160.578 12.2783 161.769C12.6152 162.92 13.2535 163.959 14.1271 164.779C14.9262 165.56 15.834 166.266 16.4297 167.228C16.7273 167.725 16.9167 168.28 16.9854 168.855C17.0541 169.43 17.0006 170.014 16.8284 170.567C16.4351 171.957 15.5667 173.122 14.6779 174.232C13.6911 175.464 12.6466 176.729 12.2896 178.306C12.2463 178.497 11.9527 178.419 11.9959 178.228C12.6172 175.484 15.1412 173.796 16.2443 171.292C16.759 170.123 16.9253 168.793 16.3089 167.628C15.7699 166.61 14.8344 165.881 14.0184 165.097C13.1545 164.31 12.4963 163.322 12.1012 162.221C11.7343 161.05 11.5691 159.824 11.6128 158.597C11.6672 155.832 12.1551 153.094 13.0589 150.481C14.0738 147.494 15.5915 144.702 17.5463 142.228C17.6674 142.074 17.8807 142.291 17.7605 142.443V142.444Z" fill="white"/>
<path d="M11.9016 156.275C10.951 156.103 10.0924 155.598 9.47926 154.85C8.8661 154.102 8.53825 153.161 8.55427 152.193C8.55528 152.154 8.57154 152.116 8.59963 152.089C8.62772 152.061 8.66543 152.045 8.70483 152.045C8.74423 152.045 8.78224 152.06 8.81084 152.087C8.83943 152.114 8.85639 152.151 8.85814 152.19C8.84156 153.091 9.14704 153.968 9.71944 154.663C10.2918 155.358 11.0934 155.826 11.9796 155.981C12.1721 156.015 12.093 156.308 11.9016 156.275L11.9016 156.275Z" fill="white"/>
<path d="M13.6695 164.437C15.3021 163.324 16.4559 161.636 16.901 159.709C16.9449 159.518 17.2385 159.596 17.1946 159.787C16.7277 161.791 15.5234 163.546 13.8219 164.7C13.6597 164.81 13.5081 164.546 13.6695 164.437Z" fill="white"/>
<path d="M14.372 147.765C14.7259 147.908 15.1099 147.961 15.4894 147.919C15.8689 147.877 16.2321 147.742 16.5463 147.524C16.707 147.412 16.8584 147.676 16.6987 147.788C16.3505 148.026 15.9492 148.175 15.53 148.223C15.1109 148.27 14.6865 148.214 14.294 148.059C14.2558 148.047 14.2234 148.022 14.2033 147.987C14.1833 147.953 14.1772 147.912 14.1862 147.873C14.1967 147.834 14.2221 147.801 14.2569 147.781C14.2917 147.76 14.3331 147.755 14.372 147.765Z" fill="white"/>
<path d="M38.2617 153.354C38.1633 153.426 38.0649 153.499 37.9665 153.574C36.6486 154.559 35.4127 155.649 34.271 156.835C34.1813 156.925 34.0917 157.018 34.0048 157.11C31.2846 159.995 29.1229 163.36 27.6294 167.035C27.0365 168.498 26.5555 170.004 26.1908 171.54C25.6871 173.662 25.3095 176.002 24.1691 177.78C24.0522 177.967 23.9238 178.147 23.7848 178.318L12.5663 178.984C12.5401 178.973 12.5139 178.964 12.4875 178.953L12.0408 179C12.0541 178.92 12.0696 178.836 12.0829 178.756C12.0904 178.709 12.1004 178.662 12.1079 178.615C12.1137 178.584 12.1196 178.553 12.1231 178.524C12.125 178.514 12.127 178.504 12.129 178.496C12.1325 178.467 12.1387 178.441 12.1423 178.415C12.2278 177.95 12.3166 177.484 12.4088 177.018C12.4087 177.015 12.4087 177.015 12.411 177.013C13.123 173.464 14.1371 169.944 15.6523 166.69C15.698 166.592 15.7433 166.491 15.7941 166.393C16.4852 164.93 17.2946 163.526 18.2141 162.195C18.72 161.468 19.2623 160.767 19.8389 160.095C21.3321 158.361 23.0885 156.872 25.0435 155.685C28.941 153.318 33.551 152.226 37.9281 153.27C38.04 153.297 38.1496 153.324 38.2617 153.354Z" fill="#F0F0F0"/>
<path d="M38.245 153.498C32.7244 154.941 27.7983 158.089 24.1662 162.496C23.3675 163.431 22.7209 164.486 22.2502 165.622C21.8274 166.744 21.7123 167.959 21.9168 169.14C22.0854 170.246 22.3857 171.357 22.283 172.484C22.2219 173.061 22.0399 173.617 21.7489 174.118C21.4578 174.619 21.0644 175.053 20.5943 175.391C19.4449 176.263 18.051 176.67 16.6742 177.02C15.1454 177.409 13.5514 177.789 12.3181 178.833C12.1687 178.959 11.9814 178.72 12.1307 178.593C14.2763 176.777 17.3062 176.951 19.6922 175.617C20.8056 174.995 21.7383 174.032 21.9462 172.731C22.1279 171.593 21.8193 170.447 21.6389 169.329C21.4225 168.179 21.4905 166.994 21.8369 165.877C22.2483 164.72 22.8533 163.642 23.6258 162.688C25.331 160.514 27.3669 158.621 29.6591 157.08C32.2653 155.307 35.1552 153.993 38.2037 153.196C38.3924 153.147 38.4324 153.449 38.245 153.498Z" fill="white"/>
<path d="M25.2522 161.008C24.5967 160.297 24.2148 159.377 24.1747 158.41C24.1345 157.443 24.4388 156.494 25.0331 155.731C25.1539 155.577 25.3984 155.758 25.2774 155.912C24.7227 156.621 24.4394 157.506 24.4786 158.406C24.5178 159.306 24.877 160.162 25.4913 160.82C25.6246 160.964 25.3848 161.15 25.2522 161.008H25.2522Z" fill="white"/>
<path d="M21.7574 168.591C23.7298 168.687 25.6659 168.035 27.1796 166.765C27.3295 166.639 27.5168 166.878 27.3671 167.004C25.7895 168.323 23.7733 168.998 21.7209 168.893C21.5253 168.883 21.5629 168.581 21.7574 168.591Z" fill="white"/>
<path d="M32.3405 155.703C32.537 156.031 32.8116 156.305 33.1399 156.5C33.4681 156.696 33.8396 156.806 34.2211 156.822C34.4168 156.83 34.379 157.132 34.1846 157.124C33.7633 157.105 33.3531 156.982 32.9899 156.767C32.6268 156.552 32.3218 156.251 32.1015 155.891C32.0779 155.859 32.0674 155.819 32.0722 155.779C32.077 155.739 32.0967 155.703 32.1273 155.677C32.159 155.653 32.1993 155.642 32.2392 155.646C32.2791 155.651 32.3156 155.672 32.3405 155.703Z" fill="white"/>
<path d="M174.67 145.114H69.4995V26.3088H174.67V145.114Z" fill="white"/>
<path d="M174.67 145.114H69.4995V26.3088H174.67V145.114ZM70.065 144.547H174.105V26.8751H70.065L70.065 144.547Z" fill="#CACACA"/>
<path d="M161.894 81.9361H82.2766C82.2024 81.9361 82.1288 81.9214 82.0602 81.893C81.9916 81.8645 81.9293 81.8228 81.8768 81.7702C81.8243 81.7176 81.7826 81.6552 81.7542 81.5865C81.7258 81.5178 81.7112 81.4441 81.7112 81.3698C81.7112 81.2954 81.7258 81.2218 81.7542 81.1531C81.7826 81.0843 81.8243 81.0219 81.8768 80.9693C81.9293 80.9167 81.9916 80.875 82.0602 80.8466C82.1288 80.8181 82.2024 80.8035 82.2766 80.8035H161.894C162.044 80.8035 162.187 80.8631 162.294 80.9693C162.4 81.0755 162.459 81.2196 162.459 81.3698C162.459 81.52 162.4 81.664 162.294 81.7702C162.187 81.8764 162.044 81.9361 161.894 81.9361Z" fill="#E4E4E4"/>
<path d="M161.894 72.2234H82.2766C82.1267 72.2234 81.9828 72.1637 81.8768 72.0575C81.7707 71.9513 81.7112 71.8073 81.7112 71.6571C81.7112 71.5069 81.7707 71.3629 81.8768 71.2567C81.9828 71.1505 82.1267 71.0908 82.2766 71.0908H161.894C162.044 71.0908 162.187 71.1505 162.294 71.2567C162.4 71.3629 162.459 71.5069 162.459 71.6571C162.459 71.8073 162.4 71.9513 162.294 72.0575C162.187 72.1637 162.044 72.2234 161.894 72.2234Z" fill="#E4E4E4"/>
<path d="M161.894 62.5108H82.2766C82.2024 62.5108 82.1288 62.4961 82.0602 62.4677C81.9916 62.4392 81.9293 62.3975 81.8768 62.3449C81.8243 62.2923 81.7826 62.2299 81.7542 62.1612C81.7258 62.0925 81.7112 62.0188 81.7112 61.9445C81.7112 61.8701 81.7258 61.7965 81.7542 61.7278C81.7826 61.6591 81.8243 61.5966 81.8768 61.544C81.9293 61.4915 81.9916 61.4497 82.0602 61.4213C82.1288 61.3928 82.2024 61.3782 82.2766 61.3782H161.894C162.044 61.3782 162.187 61.4378 162.294 61.544C162.4 61.6502 162.459 61.7943 162.459 61.9445C162.459 62.0947 162.4 62.2387 162.294 62.3449C162.187 62.4511 162.044 62.5108 161.894 62.5108Z" fill="#E4E4E4"/>
<path d="M161.894 52.7981H82.2766C82.1267 52.7981 81.9828 52.7385 81.8768 52.6323C81.7707 52.5261 81.7112 52.382 81.7112 52.2318C81.7112 52.0816 81.7707 51.9376 81.8768 51.8314C81.9828 51.7252 82.1267 51.6655 82.2766 51.6655H161.894C162.044 51.6655 162.187 51.7252 162.294 51.8314C162.4 51.9376 162.459 52.0816 162.459 52.2318C162.459 52.382 162.4 52.5261 162.294 52.6323C162.187 52.7385 162.044 52.7981 161.894 52.7981Z" fill="#E4E4E4"/>
<path d="M161.894 90.7136H82.2766C82.1267 90.7136 81.9828 90.654 81.8768 90.5478C81.7707 90.4416 81.7112 90.2975 81.7112 90.1474C81.7112 89.9972 81.7707 89.8531 81.8768 89.7469C81.9828 89.6407 82.1267 89.5811 82.2766 89.5811H161.894C162.044 89.5811 162.187 89.6407 162.294 89.7469C162.4 89.8531 162.459 89.9972 162.459 90.1474C162.459 90.2975 162.4 90.4416 162.294 90.5478C162.187 90.654 162.044 90.7136 161.894 90.7136Z" fill="#E4E4E4"/>
<path d="M161.894 134.289H82.2766C82.1267 134.289 81.9828 134.23 81.8768 134.123C81.7707 134.017 81.7112 133.873 81.7112 133.723C81.7112 133.573 81.7707 133.429 81.8768 133.323C81.9828 133.216 82.1267 133.157 82.2766 133.157H161.894C162.044 133.157 162.187 133.216 162.294 133.323C162.4 133.429 162.459 133.573 162.459 133.723C162.459 133.873 162.4 134.017 162.294 134.123C162.187 134.23 162.044 134.289 161.894 134.289Z" fill="#E4E4E4"/>
<path d="M142.821 125.199H101.349C101.071 125.199 100.806 125.088 100.61 124.892C100.414 124.696 100.303 124.429 100.303 124.152V99.7188C100.303 99.4411 100.414 99.175 100.61 98.9787C100.806 98.7824 101.071 98.6719 101.349 98.6716H142.821C143.099 98.6719 143.364 98.7824 143.56 98.9787C143.756 99.175 143.867 99.4411 143.867 99.7188V124.152C143.867 124.429 143.756 124.696 143.56 124.892C143.364 125.088 143.099 125.199 142.821 125.199Z" fill="white"/>
<path d="M128.972 111.241C128.761 111.014 128.506 110.833 128.224 110.707C127.941 110.581 127.636 110.513 127.327 110.508C127.018 110.502 126.711 110.559 126.424 110.675C126.137 110.79 125.876 110.963 125.657 111.181L113.986 122.871C113.677 123.179 113.26 123.352 112.824 123.353C112.389 123.354 111.97 123.182 111.661 122.874L109.933 121.147C109.719 120.932 109.465 120.763 109.186 120.647C108.907 120.531 108.607 120.471 108.305 120.471C108.003 120.471 107.703 120.531 107.424 120.647C107.145 120.763 106.891 120.932 106.677 121.147L103.332 124.501H140.838V124.023L128.972 111.241Z" fill="#E30613"/>
<path d="M142.821 125.199H101.349C101.071 125.199 100.806 125.088 100.61 124.892C100.414 124.696 100.303 124.429 100.303 124.152V99.7188C100.303 99.4411 100.414 99.175 100.61 98.9787C100.806 98.7824 101.071 98.6719 101.349 98.6716H142.821C143.099 98.6719 143.364 98.7824 143.56 98.9787C143.756 99.175 143.867 99.4411 143.867 99.7188V124.152C143.867 124.429 143.756 124.696 143.56 124.892C143.364 125.088 143.099 125.199 142.821 125.199ZM101.349 99.3697C101.256 99.3698 101.168 99.4066 101.102 99.4721C101.037 99.5375 101 99.6262 101 99.7188V124.152C101 124.244 101.037 124.333 101.102 124.399C101.168 124.464 101.256 124.501 101.349 124.501H142.821C142.914 124.501 143.002 124.464 143.068 124.399C143.133 124.333 143.17 124.244 143.17 124.152V99.7188C143.17 99.6262 143.133 99.5375 143.068 99.4721C143.002 99.4066 142.914 99.3698 142.821 99.3697L101.349 99.3697Z" fill="#3F3D56"/>
<path d="M42.8377 121.115C42.9428 120.744 42.9654 120.354 42.9039 119.973C42.8423 119.592 42.6981 119.229 42.4814 118.91C42.2647 118.591 41.9808 118.323 41.6496 118.126C41.3185 117.929 40.9482 117.807 40.5648 117.768L38.3917 108.644L35.061 112.198L37.6353 120.318C37.6134 120.967 37.8302 121.602 38.2444 122.102C38.6587 122.602 39.2417 122.933 39.883 123.031C40.5243 123.129 41.1792 122.988 41.7238 122.635C42.2684 122.282 42.6647 121.741 42.8377 121.115Z" fill="#FFB6B6"/>
<path d="M37.0288 117.805C36.8716 117.753 36.7272 117.668 36.6049 117.556C36.4827 117.444 36.3853 117.307 36.3192 117.155L31.7116 105.868C30.5367 103.162 30.3832 100.121 31.2797 97.31L34.232 88.0481C34.2769 87.55 34.4194 87.0656 34.6513 86.6227C34.8832 86.1798 35.2001 85.787 35.5837 85.4668C35.9673 85.1466 36.4102 84.9053 36.887 84.7567C37.3638 84.608 37.8651 84.555 38.3624 84.6005C38.8597 84.6461 39.3432 84.7894 39.7851 85.0223C40.2271 85.2551 40.6188 85.5729 40.9381 85.9575C41.2573 86.3421 41.4977 86.786 41.6455 87.2637C41.7933 87.7414 41.8457 88.2436 41.7995 88.7416L37.8842 103.656L40.5066 115.369C40.5476 115.609 40.5143 115.855 40.4112 116.074C40.308 116.294 40.14 116.477 39.9299 116.598L37.9861 117.71C37.7776 117.829 37.5377 117.882 37.2985 117.861C37.2067 117.853 37.1162 117.835 37.0288 117.805Z" fill="#E4E4E4"/>
<path d="M53.4166 175.637H56.6297L58.1585 163.224H53.4158L53.4166 175.637Z" fill="#FFB6B6"/>
<path d="M52.5967 174.586L58.9249 174.586H58.9252C59.9947 174.586 61.0204 175.012 61.7767 175.769C62.533 176.526 62.9579 177.554 62.958 178.625V178.756L52.5969 178.757L52.5967 174.586Z" fill="#2F2E41"/>
<path d="M35.3314 175.637H38.5445L40.0733 163.224H35.3306L35.3314 175.637Z" fill="#FFB6B6"/>
<path d="M34.5115 174.586L40.8397 174.586H40.84C41.9095 174.586 42.9352 175.012 43.6915 175.769C44.4478 176.526 44.8727 177.554 44.8728 178.625V178.756L34.5117 178.757L34.5115 174.586Z" fill="#2F2E41"/>
<path d="M55.3512 113.025L36.5068 111.365C36.5068 111.365 34.645 123.263 34.9071 127.988C35.1692 132.713 35.4313 140.063 35.4313 140.063L33.3345 172.089L41.4597 171.039L42.5081 144.526L45.9154 130.088L49.847 148.463L52.468 172.089L59.5448 171.301L57.1859 142.688C57.1859 142.688 59.2827 116.963 55.3512 113.025Z" fill="#2F2E41"/>
<path d="M47.7501 78.112C50.6452 78.112 52.9922 75.7615 52.9922 72.8619C52.9922 69.9624 50.6452 67.6118 47.7501 67.6118C44.855 67.6118 42.5081 69.9624 42.5081 72.8619C42.5081 75.7615 44.855 78.112 47.7501 78.112Z" fill="#FFB8B8"/>
<path d="M53.4908 84.5846L49.7468 81.5997C49.7468 81.5997 45.6923 78.4664 43.314 80.7829L42.2461 82.3119C42.2461 82.3119 36.192 84.5846 36.192 87.4721L36.4798 103.312C36.4798 103.312 34.383 111.45 37.5283 111.975L55.8498 113.46L55.6134 98.3247L53.4908 84.5846Z" fill="#E4E4E4"/>
<path d="M43.6877 77.4559C43.6877 77.4559 38.1835 73.5183 41.0667 68.7933C43.0668 65.5153 47.2115 65.7747 49.5625 66.2411C50.1959 66.3582 50.7914 66.6278 51.2976 67.0267C51.8038 67.4256 52.2055 67.9418 52.4682 68.5308C52.8613 69.4495 52.8613 70.3683 51.2887 70.3683C48.1435 70.3683 49.7161 72.7308 49.7161 72.7308C49.7161 72.7308 47.6193 73.2558 48.1435 75.0934C48.6677 76.9309 43.6877 77.4559 43.6877 77.4559Z" fill="#2F2E41"/>
<path d="M72.4032 112.249C72.3055 111.876 72.1273 111.529 71.8812 111.232C71.635 110.935 71.3268 110.696 70.9784 110.531C70.6299 110.366 70.2496 110.28 69.8643 110.279C69.479 110.277 69.0981 110.36 68.7483 110.522L62.2501 103.766L61.1829 108.522L67.5172 114.208C67.8276 114.779 68.3362 115.215 68.9466 115.436C69.5569 115.656 70.2267 115.644 70.829 115.402C71.4312 115.161 71.9241 114.707 72.2143 114.125C72.5044 113.544 72.5716 112.877 72.4032 112.249H72.4032Z" fill="#FFB6B6"/>
<path d="M65.7212 112.352C65.5592 112.387 65.3917 112.387 65.2296 112.353C65.0675 112.319 64.9144 112.25 64.7803 112.153L55.0886 104.772C52.7045 103.039 51.0303 100.496 50.3775 97.619L48.2253 88.1385C48.011 87.6865 47.8879 87.1966 47.8629 86.6969C47.8379 86.1972 47.9116 85.6975 48.0796 85.2263C48.2477 84.7551 48.5069 84.3218 48.8424 83.9511C49.1779 83.5803 49.5831 83.2795 50.0348 83.0658C50.4865 82.8521 50.9758 82.7297 51.4748 82.7056C51.9738 82.6815 52.4727 82.7562 52.9428 82.9254C53.4129 83.0946 53.8451 83.355 54.2146 83.6917C54.5842 84.0284 54.8838 84.4348 55.0963 84.8876L59.2846 99.7274L67.4823 108.485C67.639 108.67 67.7351 108.899 67.7576 109.141C67.7801 109.383 67.728 109.625 67.6082 109.836L66.4976 111.783C66.3784 111.992 66.1985 112.159 65.9819 112.263C65.8988 112.303 65.8113 112.333 65.7212 112.352Z" fill="#E4E4E4"/>
<path d="M100.124 178.824H0.262103C0.192589 178.824 0.125922 178.796 0.0767681 178.747C0.0276142 178.698 0 178.631 0 178.561C0 178.492 0.0276142 178.425 0.0767681 178.376C0.125922 178.326 0.192589 178.299 0.262103 178.299H100.124C100.193 178.299 100.26 178.326 100.309 178.376C100.358 178.425 100.386 178.492 100.386 178.561C100.386 178.631 100.358 178.698 100.309 178.747C100.26 178.796 100.193 178.824 100.124 178.824Z" fill="#CACACA"/>
<path d="M153.219 42.5165H91.0283C90.6818 42.5239 90.3445 42.4036 90.0807 42.1784C89.817 41.9532 89.645 41.6387 89.5976 41.2948C89.578 41.1051 89.5983 40.9133 89.6574 40.732C89.7165 40.5506 89.8129 40.3837 89.9405 40.2421C90.068 40.1004 90.2238 39.9872 90.3979 39.9096C90.5719 39.8321 90.7602 39.792 90.9507 39.792H153.123C153.475 39.7827 153.818 39.9043 154.086 40.1333C154.354 40.3622 154.528 40.6824 154.574 41.0322C154.591 41.2206 154.569 41.4105 154.508 41.5897C154.448 41.769 154.351 41.9336 154.223 42.0733C154.096 42.2129 153.941 42.3244 153.768 42.4007C153.595 42.477 153.408 42.5164 153.219 42.5165Z" fill="#E30613"/>
</g>
<defs>
<clipPath id="clip0_2535:15571">
<rect width="212" height="179" fill="white"/>
</clipPath>
</defs>
</svg>
